# xmcd CD database file
#
# Track frame offsets:
#	150
#	18387
#	36304
#	56320
#	71071
#	91565
#	102631
#	117990
#	134107
#	150414
#	166850
#	187336
#	210169
#	229485
#
# Disc length: 3335 seconds
#
# Revision: 1
# Processed by: cddbd v1.5.1PL0 Copyright (c) Steve Scherf et al.
# Submitted via: cdripper 1,0,14,817
#
DISCID=c00d050e
DTITLE=Kheops - Blue Siroco
DYEAR=2003
DGENRE=New Age
TTITLE0=Southern Cross
TTITLE1=The King's Twilight
TTITLE2=After The War (2003 Remix)
TTITLE3=Window On The Sea
TTITLE4=Liberty Wind (2003 Remix)
TTITLE5=The Crused Island
TTITLE6=Journey Of Winter
TTITLE7=The Red Seagull
TTITLE8=Seoul By Song 2
TTITLE9=A Prayer For The World
TTITLE10=Blue Siroco
TTITLE11=Knight Of Oceans
TTITLE12=Wind Of Asia
TTITLE13=Seoul By Song 1
EXTD=YEAR: 2003
EXTT0=
EXTT1=
EXTT2=
EXTT3=
EXTT4=
EXTT5=
EXTT6=
EXTT7=
EXTT8=
EXTT9=
EXTT10=
EXTT11=
EXTT12=
EXTT13=
PLAYORDER=
